<?xml version="1.0" encoding="UTF-8"?>
<svg width="40px" height="600px" viewBox="0 0 40 600" version="1.1" xmlns="http://www.w3.org/2000/svg" xmlns:xlink="http://www.w3.org/1999/xlink">
    <!-- Generator: Sketch 48.1 (47250) - http://www.bohemiancoding.com/sketch -->
    <title>timeline</title>
    <desc>Created with Sketch.</desc>
    <defs>
        <polygon id="path-1" points="0.9801 0.194 5.9801 0.194 5.9801 5.1904 0.9801 5.1904"></polygon>
        <polygon id="path-3" points="0 0.289032592 24.97 0.289032592 24.97 569 0 569"></polygon>
    </defs>
    <g id="Page-1" stroke="none" stroke-width="1" fill="none" fill-rule="evenodd">
        <g id="timeline">
            <g id="Page-1" transform="translate(8.000000, 0.000000)">
                <g id="Group-3" transform="translate(8.000000, 0.806000)">
                    <mask id="mask-2" fill="white">
                        <use xlink:href="#path-1"></use>
                    </mask>
                    <g id="Clip-2"></g>
                    <path d="M3.4801,5.1904 C2.8201,5.1904 2.1801,4.9204 1.7101,4.4604 C1.6001,4.3404 1.4901,4.2104 1.4001,4.0804 C1.3101,3.9404 1.2301,3.8004 1.1701,3.6504 C1.1101,3.5004 1.0601,3.3404 1.0301,3.1804 C1.0001,3.0204 0.9801,2.8504 0.9801,2.6904 C0.9801,2.5304 1.0001,2.3604 1.0301,2.2004 C1.0601,2.0404 1.1101,1.8804 1.1701,1.7304 C1.2301,1.5804 1.3101,1.4404 1.4001,1.3004 C1.4901,1.1704 1.6001,1.0404 1.7101,0.9204 C2.2901,0.3404 3.1601,0.0804 3.9701,0.2404 C4.1301,0.2704 4.2801,0.3204 4.4401,0.3804 C4.5901,0.4404 4.7301,0.5204 4.8701,0.6104 C5.0001,0.7004 5.1301,0.8104 5.2501,0.9204 C5.7091,1.3904 5.9801,2.0304 5.9801,2.6904 C5.9801,3.3504 5.7091,3.9904 5.2501,4.4604 C5.1301,4.5704 5.0001,4.6804 4.8701,4.7704 C4.7301,4.8604 4.5901,4.9404 4.4401,5.0004 C4.2801,5.0604 4.1301,5.1104 3.9701,5.1404 C3.8101,5.1704 3.6401,5.1904 3.4801,5.1904" id="Fill-1" fill="#D2D2D2" mask="url(#mask-2)"></path>
                </g>
                <g id="Group-6" transform="translate(0.000000, 18.806000)">
                    <mask id="mask-4" fill="white">
                        <use xlink:href="#path-3"></use>
                    </mask>
                    <g id="Clip-5"></g>
                    <path d="M9.44,5.2803 C8.07,5.1503 7.06,3.9303 7.19,2.5503 C7.32,1.1803 8.54,0.1703 9.92,0.3003 C11.29,0.4303 12.3,1.6503 12.17,3.0303 C12.05,4.3203 10.96,5.2903 9.68,5.2903 C9.6,5.2903 9.52,5.2903 9.44,5.2803 Z M7.77,23.4303 C6.39,23.3103 5.38,22.0903 5.5,20.7203 C5.62,19.3403 6.84,18.3303 8.21,18.4503 C9.59,18.5803 10.6,19.7903 10.48,21.1703 C10.36,22.4603 9.27,23.4403 7.99,23.4403 C7.92,23.4403 7.84,23.4403 7.77,23.4303 Z M6.23,41.6003 C4.85,41.4903 3.83,40.2803 3.94,38.9003 C4.05,37.5303 5.25,36.5003 6.63,36.6103 C8.01,36.7303 9.03,37.9303 8.92,39.3103 C8.81,40.6203 7.72,41.6103 6.43,41.6103 C6.36,41.6103 6.29,41.6003 6.23,41.6003 Z M4.88,59.7803 C3.5,59.6803 2.46,58.4903 2.56,57.1103 C2.65,55.7303 3.85,54.6903 5.23,54.7903 C6.6,54.8803 7.64,56.0803 7.55,57.4603 C7.45,58.7703 6.36,59.7803 5.06,59.7803 L4.88,59.7803 Z M3.78,77.9703 C2.4,77.9003 1.35,76.7203 1.42,75.3403 C1.5,73.9603 2.68,72.9103 4.06,72.9803 C5.43,73.0603 6.49,74.2403 6.41,75.6103 L6.42,75.6103 C6.34,76.9503 5.24,77.9803 3.92,77.9803 C3.87,77.9803 3.83,77.9803 3.78,77.9703 Z M2.98,96.1903 C1.6,96.1303 0.53,94.9803 0.58,93.6003 C0.63,92.2203 1.79,91.1403 3.17,91.1903 C4.55,91.2403 5.63,92.4003 5.58,93.7803 C5.53,95.1303 4.41,96.1903 3.07,96.1903 L2.98,96.1903 Z M2.55,114.4103 C1.16,114.3903 0.06,113.2503 0.09,111.8703 C0.11,110.4903 1.25,109.3903 2.63,109.4103 C4.01,109.4303 5.11,110.5703 5.09,111.9503 C5.06,113.3203 3.95,114.4103 2.59,114.4103 L2.55,114.4103 Z M0,130.1603 C-0.01,128.7803 1.1,127.6503 2.48,127.6403 C3.86,127.6303 4.99,128.7403 5,130.1203 C5.01,131.5003 3.9,132.6303 2.52,132.6403 L2.5,132.6403 C1.13,132.6403 0.01,131.5303 0,130.1603 Z M0.33,148.4403 L0.34,148.4403 C0.3,147.0603 1.38,145.9103 2.76,145.8703 C4.14,145.8303 5.29,146.9103 5.33,148.2903 C5.37,149.6703 4.29,150.8203 2.91,150.8603 C2.88,150.8703 2.86,150.8703 2.83,150.8703 C1.49,150.8703 0.37,149.7903 0.33,148.4403 Z M1.04,166.7003 C0.98,165.3203 2.04,164.1503 3.42,164.0803 C4.8,164.0203 5.97,165.0803 6.04,166.4603 C6.1,167.8403 5.04,169.0103 3.66,169.0803 L3.54,169.0803 C2.21,169.0803 1.11,168.0403 1.04,166.7003 Z M2.07,184.9403 C1.98,183.5603 3.03,182.3803 4.4,182.2903 C5.78,182.2003 6.97,183.2403 7.06,184.6203 C7.15,186.0003 6.1,187.1903 4.73,187.2803 L4.57,187.2803 C3.26,187.2803 2.16,186.2603 2.07,184.9403 Z M3.36,203.1603 C3.25,201.7803 4.29,200.5803 5.66,200.4703 C7.04,200.3703 8.24,201.3903 8.35,202.7703 C8.45,204.1503 7.42,205.3503 6.05,205.4603 C5.98,205.4603 5.92,205.4703 5.85,205.4703 C4.56,205.4703 3.46,204.4703 3.36,203.1603 Z M4.86,221.3503 C4.74,219.9703 5.76,218.7603 7.13,218.6403 C8.51,218.5203 9.72,219.5403 9.84,220.9203 C9.96,222.2903 8.95,223.5003 7.57,223.6203 C7.5,223.6303 7.42,223.6303 7.35,223.6303 C6.07,223.6303 4.98,222.6503 4.86,221.3503 Z M6.52,239.5203 C6.39,238.1503 7.4,236.9303 8.77,236.8003 C10.14,236.6703 11.36,237.6803 11.49,239.0503 C11.62,240.4303 10.62,241.6503 9.24,241.7803 C9.16,241.7903 9.08,241.7903 9,241.7903 C7.73,241.7903 6.64,240.8203 6.52,239.5203 Z M8.27,257.6803 C8.14,256.3103 9.14,255.0803 10.52,254.9403 C11.89,254.8103 13.11,255.8103 13.25,257.1903 C13.39,258.5603 12.38,259.7903 11.01,259.9203 C10.92,259.9303 10.84,259.9303 10.76,259.9303 C9.49,259.9303 8.4,258.9703 8.27,257.6803 Z M10.08,275.8203 C9.94,274.4503 10.95,273.2203 12.32,273.0903 C13.69,272.9503 14.919,273.9503 15.06,275.3203 C15.19,276.7003 14.19,277.9203 12.82,278.0603 C12.73,278.0703 12.65,278.0703 12.57,278.0703 C11.3,278.0703 10.21,277.1103 10.08,275.8203 Z M11.88,293.9603 C11.75,292.5803 12.75,291.3603 14.129,291.2303 C15.5,291.0903 16.72,292.0903 16.86,293.4703 C16.99,294.8403 15.99,296.0603 14.62,296.2003 C14.53,296.2103 14.45,296.2103 14.37,296.2103 C13.1,296.2103 12.01,295.2503 11.88,293.9603 Z M13.629,312.0903 C13.5,310.7203 14.51,309.5003 15.89,309.3703 C17.26,309.2403 18.48,310.2503 18.61,311.6303 C18.74,313.0003 17.73,314.2203 16.35,314.3503 C16.28,314.3603 16.2,314.3603 16.12,314.3603 C14.839,314.3603 13.75,313.3903 13.629,312.0903 Z M15.27,330.2303 C15.15,328.8503 16.169,327.6403 17.549,327.5303 C18.919,327.4103 20.129,328.4203 20.25,329.8003 C20.37,331.1803 19.35,332.3903 17.98,332.5003 C17.9,332.5093 17.83,332.5093 17.76,332.5093 C16.47,332.5093 15.379,331.5303 15.27,330.2303 Z M16.75,348.3803 C16.64,347.0003 17.669,345.8003 19.049,345.6903 C20.43,345.5903 21.629,346.6203 21.73,348.0003 C21.839,349.3703 20.81,350.5703 19.43,350.6803 C19.37,350.6803 19.299,350.6903 19.24,350.6903 C17.94,350.6903 16.85,349.6903 16.75,348.3803 Z M18.01,366.5303 C17.919,365.1503 18.97,363.9603 20.35,363.8803 C21.73,363.7903 22.91,364.8403 23,366.2203 C23.089,367.5903 22.04,368.7803 20.66,368.8703 L20.51,368.8703 C19.19,368.8703 18.089,367.8503 18.01,366.5303 Z M19.01,384.6903 C18.94,383.3103 20.01,382.1403 21.39,382.0803 C22.77,382.0093 23.93,383.0803 24,384.4603 C24.06,385.8403 23,387.0093 21.62,387.0703 L21.5,387.0703 C20.169,387.0703 19.07,386.0303 19.01,384.6903 Z M19.68,402.8603 C19.64,401.4803 20.73,400.3303 22.11,400.2903 C23.49,400.2503 24.64,401.3403 24.669,402.7203 C24.71,404.1003 23.62,405.2503 22.24,405.2903 L22.169,405.2903 C20.82,405.2903 19.71,404.2203 19.68,402.8603 Z M19.97,421.0303 C19.96,419.6503 21.08,418.5203 22.46,418.5203 C23.839,418.5093 24.96,419.6303 24.97,421.0093 C24.98,422.3903 23.86,423.5093 22.48,423.5203 L22.47,423.5203 C21.1,423.5203 19.98,422.4103 19.97,421.0303 Z M22.29,441.7503 C20.919,441.7203 19.82,440.5803 19.839,439.2003 C19.87,437.8203 21.01,436.7203 22.39,436.7503 C23.77,436.7703 24.87,437.9103 24.839,439.2903 C24.81,440.6603 23.7,441.7503 22.339,441.7503 L22.29,441.7503 Z M21.71,459.9703 C20.33,459.9103 19.26,458.7503 19.31,457.3703 C19.37,455.9903 20.53,454.9203 21.91,454.9703 C23.29,455.0203 24.36,456.1903 24.31,457.5703 C24.26,458.9103 23.15,459.9703 21.81,459.9703 L21.71,459.9703 Z M20.79,478.1703 C19.41,478.0903 18.36,476.9103 18.44,475.5403 C18.51,474.1603 19.7,473.1003 21.07,473.1803 C22.45,473.2593 23.51,474.4403 23.43,475.8203 C23.35,477.1503 22.25,478.1803 20.94,478.1803 C20.89,478.1803 20.839,478.1703 20.79,478.1703 Z M19.589,496.3603 C18.21,496.2593 17.169,495.0703 17.27,493.6903 C17.37,492.3103 18.57,491.2803 19.94,491.3803 C21.32,491.4703 22.36,492.6703 22.26,494.0403 C22.169,495.3603 21.07,496.3703 19.76,496.3703 C19.71,496.3703 19.65,496.3703 19.589,496.3603 Z M18.15,514.5303 C16.78,514.4203 15.76,513.2103 15.87,511.8403 C15.98,510.4603 17.19,509.4403 18.57,509.5503 C19.94,509.6703 20.97,510.8703 20.85,512.2503 C20.74,513.5503 19.65,514.5403 18.36,514.5403 C18.29,514.5403 18.22,514.5403 18.15,514.5303 Z M16.549,532.7003 C15.169,532.5703 14.16,531.3503 14.29,529.9803 C14.41,528.6003 15.629,527.5903 17,527.7203 C18.379,527.8403 19.39,529.0603 19.27,530.4303 C19.15,531.7303 18.06,532.7103 16.78,532.7103 C16.7,532.7103 16.629,532.7003 16.549,532.7003 Z M14.83,550.8403 C13.45,550.7103 12.44,549.4903 12.58,548.1103 C12.71,546.7403 13.93,545.7303 15.31,545.8703 C16.68,546.0003 17.69,547.2203 17.549,548.5903 L17.549,548.6003 C17.43,549.8903 16.339,550.8503 15.07,550.8503 C14.99,550.8503 14.91,550.8503 14.83,550.8403 Z M13.04,568.9803 C11.66,568.8503 10.66,567.6203 10.8,566.2503 C10.93,564.8803 12.15,563.8703 13.53,564.0093 C14.9,564.1503 15.91,565.3703 15.77,566.7403 C15.64,568.0303 14.56,569.0003 13.29,569.0003 C13.21,569.0003 13.12,568.9903 13.04,568.9803 Z" id="Fill-4" fill="#D2D2D2" mask="url(#mask-4)"></path>
                </g>
            </g>
        </g>
    </g>
</svg>