<?xml version="1.0" encoding="utf-8"?>
<!-- Generator: Adobe Illustrator 22.0.1, SVG Export Plug-In . SVG Version: 6.00 Build 0)  -->
<svg version="1.1" id="Layer_1" xmlns="http://www.w3.org/2000/svg" xmlns:xlink="http://www.w3.org/1999/xlink" x="0px" y="0px"
	 viewBox="0 0 20 20" style="enable-background:new 0 0 20 20;" xml:space="preserve">
<style type="text/css">
	.st0{fill:#FFFFFF;}
	.st1{fill:none;stroke:#FFFFFF;stroke-miterlimit:10;}
</style>
<g>
	<path class="st0" d="M16,2c0.6,0,1,0.4,1,1v14c0,0.6-0.4,1-1,1H4c-0.6,0-1-0.4-1-1V3c0-0.6,0.4-1,1-1H16 M16,1H4C2.9,1,2,1.9,2,3
		v14c0,1.1,0.9,2,2,2h12c1.1,0,2-0.9,2-2V3C18,1.9,17.1,1,16,1L16,1z"/>
</g>
<polyline class="st1" points="2.5,15.5 7.5,10.5 13.5,15.5 17.5,11.5 "/>
<circle class="st1" cx="12.5" cy="6.5" r="2"/>
</svg>
