<?xml version="1.0" encoding="utf-8"?>
<!-- Generator: Adobe Illustrator 22.0.1, SVG Export Plug-In . SVG Version: 6.00 Build 0)  -->
<svg version="1.1" id="Layer_1" xmlns="http://www.w3.org/2000/svg" xmlns:xlink="http://www.w3.org/1999/xlink" x="0px" y="0px"
	 viewBox="0 0 20 20" style="enable-background:new 0 0 20 20;" xml:space="preserve">
<style type="text/css">
	.st0{fill:#D1D1D1;}
	.st1{fill:#E2E2E2;}
	.st2{fill:none;stroke:#485253;stroke-miterlimit:10;}
	.st3{fill:#485253;}
	.st4{fill:none;stroke:#485253;stroke-linejoin:round;stroke-miterlimit:10;}
	.st5{fill:#FFFFFF;}
	.st6{clip-path:url(#SVGID_4_);}
	.st7{fill:none;stroke:#E2E2E2;stroke-miterlimit:10;}
	.st8{clip-path:url(#SVGID_6_);}
	.st9{fill:none;stroke:#485253;stroke-linecap:round;stroke-miterlimit:10;}
	.st10{clip-path:url(#SVGID_7_);}
	.st11{clip-path:url(#SVGID_8_);}
	.st12{fill:none;stroke:#D1D1D1;stroke-linecap:round;stroke-miterlimit:10;}
</style>
<g>
	<path class="st3" d="M15,2c1.7,0,3,1.3,3,3v10c0,1.7-1.3,3-3,3H5c-1.7,0-3-1.3-3-3V5c0-1.7,1.3-3,3-3H15 M15,1H5C2.8,1,1,2.8,1,5
		v10c0,2.2,1.8,4,4,4h10c2.2,0,4-1.8,4-4V5C19,2.8,17.2,1,15,1L15,1z"/>
</g>
<g>
	<g>
		<path class="st3" d="M6.4,7.7L5,8.5c0,0-0.1,0-0.1,0c-0.1,0-0.1,0-0.1-0.1V7.1C4.8,7,4.8,7,4.9,6.9l2-1.1c0.1,0,0.1-0.1,0.2-0.1
			h0.7c0.1,0,0.1,0,0.1,0.1v8.2c0,0.1,0,0.1-0.1,0.1H6.5c-0.1,0-0.1,0-0.1-0.1V7.7z"/>
	</g>
	<g>
		<path class="st3" d="M12.1,14.3c-1.5,0-2.6-0.9-2.7-2.3c0-0.1,0.1-0.1,0.1-0.1h1.2c0.1,0,0.1,0,0.1,0.1c0.2,0.6,0.7,0.8,1.3,0.8
			c0.7,0,1.4-0.5,1.6-2.3c-0.5,0.4-1.1,0.6-1.8,0.6c-1.6,0-2.7-1.1-2.7-2.8c0-1.7,1.4-2.8,3-2.8c1.7,0,3.1,1.2,3.1,3.9
			C15.2,12.9,13.9,14.3,12.1,14.3z M12,7.1c-0.9,0-1.4,0.6-1.4,1.4s0.6,1.4,1.4,1.4c0.9,0,1.4-0.6,1.4-1.4S12.9,7.1,12,7.1z"/>
	</g>
</g>
<g>
	<path class="st3" d="M4.5,15C4.2,15,4,15.2,4,15.5S4.2,16,4.5,16S5,15.8,5,15.5S4.8,15,4.5,15L4.5,15z"/>
</g>
<g>
	<path class="st3" d="M15.5,15c-0.3,0-0.5,0.2-0.5,0.5s0.2,0.5,0.5,0.5s0.5-0.2,0.5-0.5S15.8,15,15.5,15L15.5,15z"/>
</g>
<g>
	<path class="st3" d="M4.5,4C4.2,4,4,4.2,4,4.5S4.2,5,4.5,5S5,4.8,5,4.5S4.8,4,4.5,4L4.5,4z"/>
</g>
<g>
	<path class="st3" d="M15.5,4C15.2,4,15,4.2,15,4.5S15.2,5,15.5,5S16,4.8,16,4.5S15.8,4,15.5,4L15.5,4z"/>
</g>
</svg>
