<?xml version="1.0" encoding="utf-8"?>
<!-- Generator: Adobe Illustrator 22.0.1, SVG Export Plug-In . SVG Version: 6.00 Build 0)  -->
<svg version="1.1" id="Layer_1" xmlns="http://www.w3.org/2000/svg" xmlns:xlink="http://www.w3.org/1999/xlink" x="0px" y="0px"
	 viewBox="0 0 20 23" style="enable-background:new 0 0 20 23;" xml:space="preserve">
<style type="text/css">
	.st0{fill:none;stroke:#485253;stroke-miterlimit:10;}
	.st1{fill:#FFFFFF;}
	.st2{fill:#485253;}
	.st3{fill:#E2E2E2;}
	.st4{fill:none;stroke:#485253;stroke-linejoin:round;stroke-miterlimit:10;}
	.st5{clip-path:url(#SVGID_4_);}
	.st6{fill:none;stroke:#E2E2E2;stroke-miterlimit:10;}
	.st7{clip-path:url(#SVGID_6_);}
	.st8{fill:none;stroke:#485253;stroke-linecap:round;stroke-miterlimit:10;}
	.st9{clip-path:url(#SVGID_7_);}
	.st10{clip-path:url(#SVGID_8_);}
	.st11{fill:#D1D1D1;}
	.st12{fill:none;stroke:#D1D1D1;stroke-linecap:round;stroke-miterlimit:10;}
	.st13{fill:#E2E2E2;stroke:#485253;stroke-miterlimit:10;}
</style>
<g>
	<path class="st0" d="M14,11.1c-1.9-0.3-2-3.5-1.7-5.9C12.5,3.5,9,7.5,9,7.5S8.2,9.3,5.5,8.8"/>
	<path class="st0" d="M6,16c0,2.2,1.8,4,4,4s4-1.8,4-4"/>
	<g>
		<path class="st2" d="M14.1,17c2.7,0,4.9,2.2,4.9,4.9V22H1v-0.1C1,19.2,3.2,17,5.9,17H14.1 M14.1,16H5.9C2.6,16,0,18.6,0,21.9V22
			c0,0.6,0.4,1,1,1h18c0.6,0,1-0.4,1-1v-0.1C20,18.6,17.4,16,14.1,16L14.1,16z"/>
	</g>
	<g>
		<path class="st2" d="M10,4c2.2,0,4,1.8,4,4c0,1-0.2,6-4,6S6,9,6,8C6,5.8,7.8,4,10,4 M10,3C7.2,3,5,5.3,5,8s1,7,5,7s5-4.2,5-7
			S12.8,3,10,3L10,3z"/>
	</g>
	<g>
		<path class="st13" d="M5.5,6.5l-1-3L10,1l5.5,2.5l-1,3l0,0C11.7,7.8,8.4,7.8,5.5,6.5L5.5,6.5z"/>
		<path class="st0" d="M14.5,6L14.5,6c-2.8-1.3-6.1-1.3-8.9,0L5.5,6"/>
	</g>
</g>
</svg>
