<?xml version="1.0" encoding="utf-8"?>
<!-- Generator: Adobe Illustrator 22.0.1, SVG Export Plug-In . SVG Version: 6.00 Build 0)  -->
<svg version="1.1" id="Layer_1" xmlns="http://www.w3.org/2000/svg" xmlns:xlink="http://www.w3.org/1999/xlink" x="0px" y="0px"
	 viewBox="0 0 20 20" style="enable-background:new 0 0 20 20;" xml:space="preserve">
<style type="text/css">
	.st0{fill:#D1D1D1;}
	.st1{fill:#E2E2E2;}
	.st2{fill:none;stroke:#485253;stroke-miterlimit:10;}
	.st3{fill:#485253;}
	.st4{fill:none;stroke:#485253;stroke-linejoin:round;stroke-miterlimit:10;}
	.st5{fill:#FFFFFF;}
	.st6{clip-path:url(#SVGID_4_);}
	.st7{fill:none;stroke:#E2E2E2;stroke-miterlimit:10;}
	.st8{clip-path:url(#SVGID_6_);}
	.st9{fill:none;stroke:#485253;stroke-linecap:round;stroke-miterlimit:10;}
	.st10{clip-path:url(#SVGID_7_);}
	.st11{clip-path:url(#SVGID_8_);}
	.st12{fill:none;stroke:#D1D1D1;stroke-linecap:round;stroke-miterlimit:10;}
</style>
<g>
	<path class="st3" d="M18,3c0.6,0,1,0.4,1,1v4c0,0.6-0.4,1-1,1H2C1.4,9,1,8.6,1,8V4c0-0.6,0.4-1,1-1H18 M18,2H2C0.9,2,0,2.9,0,4v4
		c0,1.1,0.9,2,2,2h16c1.1,0,2-0.9,2-2V4C20,2.9,19.1,2,18,2L18,2z"/>
</g>
<line class="st9" x1="4.5" y1="17.5" x2="4.5" y2="9.5"/>
<line class="st9" x1="15.5" y1="17.5" x2="15.5" y2="9.5"/>
<path class="st1" d="M16,7H4C3.4,7,3,6.6,3,6v0c0-0.6,0.4-1,1-1h12c0.6,0,1,0.4,1,1v0C17,6.6,16.6,7,16,7z"/>
</svg>
