<?xml version="1.0" encoding="utf-8"?>
<!-- Generator: Adobe Illustrator 22.0.1, SVG Export Plug-In . SVG Version: 6.00 Build 0)  -->
<svg version="1.1" id="Layer_1" xmlns="http://www.w3.org/2000/svg" xmlns:xlink="http://www.w3.org/1999/xlink" x="0px" y="0px"
	 viewBox="0 0 20 20" style="enable-background:new 0 0 20 20;" xml:space="preserve">
<style type="text/css">
	.st0{fill:#D1D1D1;}
	.st1{fill:#E2E2E2;}
	.st2{fill:none;stroke:#485253;stroke-miterlimit:10;}
	.st3{fill:#485253;}
	.st4{fill:none;stroke:#485253;stroke-linejoin:round;stroke-miterlimit:10;}
	.st5{fill:#FFFFFF;}
	.st6{clip-path:url(#SVGID_4_);}
	.st7{fill:none;stroke:#E2E2E2;stroke-miterlimit:10;}
	.st8{clip-path:url(#SVGID_6_);}
	.st9{fill:none;stroke:#485253;stroke-linecap:round;stroke-miterlimit:10;}
	.st10{clip-path:url(#SVGID_7_);}
	.st11{clip-path:url(#SVGID_8_);}
	.st12{fill:none;stroke:#D1D1D1;stroke-linecap:round;stroke-miterlimit:10;}
</style>
<path class="st0" d="M14.3,7.1c0.8-5.7-2.4-6.7-4.2-6.7S5.4,2.1,5.6,4.7c1.9,1,4.8,1.4,6.2-0.5C12.2,6.5,14.3,7.1,14.3,7.1z"/>
<path class="st2" d="M6,13c0,2.2,1.8,4,4,4s4-1.8,4-4"/>
<g>
	<path class="st3" d="M14.1,14c2.7,0,4.9,2.2,4.9,4.9V19H1v-0.1C1,16.2,3.2,14,5.9,14H14.1 M14.1,13H5.9C2.6,13,0,15.6,0,18.9V19
		c0,0.6,0.4,1,1,1h18c0.6,0,1-0.4,1-1v-0.1C20,15.6,17.4,13,14.1,13L14.1,13z"/>
</g>
<g>
	<path class="st3" d="M10,1c2.2,0,4,1.8,4,4c0,1-0.2,6-4,6S6,6,6,5C6,2.8,7.8,1,10,1 M10,0C7.2,0,5,2.2,5,5s1,7,5,7s5-4.2,5-7
		S12.8,0,10,0L10,0z"/>
</g>
<path class="st4" d="M5.5,4.7C8.6,6.2,11.1,5.4,12,4c0,3.1,2.2,3.3,2.2,3.3"/>
</svg>
