<?xml version="1.0" encoding="utf-8"?>
<!-- Generator: Adobe Illustrator 22.0.1, SVG Export Plug-In . SVG Version: 6.00 Build 0)  -->
<svg version="1.1" id="Layer_1" xmlns="http://www.w3.org/2000/svg" xmlns:xlink="http://www.w3.org/1999/xlink" x="0px" y="0px"
	 viewBox="0 0 20 20" style="enable-background:new 0 0 20 20;" xml:space="preserve">
<style type="text/css">
	.st0{fill:#D1D1D1;}
	.st1{fill:#E2E2E2;}
	.st2{fill:none;stroke:#485253;stroke-miterlimit:10;}
	.st3{fill:#485253;}
	.st4{fill:none;stroke:#485253;stroke-linejoin:round;stroke-miterlimit:10;}
	.st5{fill:#FFFFFF;}
	.st6{clip-path:url(#SVGID_4_);}
	.st7{fill:none;stroke:#E2E2E2;stroke-miterlimit:10;}
	.st8{clip-path:url(#SVGID_6_);}
	.st9{fill:none;stroke:#485253;stroke-linecap:round;stroke-miterlimit:10;}
	.st10{clip-path:url(#SVGID_7_);}
	.st11{clip-path:url(#SVGID_8_);}
	.st12{fill:none;stroke:#D1D1D1;stroke-linecap:round;stroke-miterlimit:10;}
</style>
<g>
	<defs>
		<path id="SVGID_2_" d="M15,5c0,2.8-1,7-5,7S5,7.8,5,5s2.2-5,5-5S15,2.2,15,5z"/>
	</defs>
	<clipPath id="SVGID_4_">
		<use xlink:href="#SVGID_2_"  style="overflow:visible;"/>
	</clipPath>
	<g class="st6">
		<line class="st7" x1="16" y1="-6" x2="5" y2="5"/>
		<line class="st7" x1="16" y1="-3" x2="5" y2="8"/>
		<line class="st7" x1="16" y1="0" x2="5" y2="11"/>
		<line class="st7" x1="16" y1="3" x2="5" y2="14"/>
		<line class="st7" x1="16" y1="6" x2="5" y2="17"/>
		<line class="st7" x1="16" y1="9" x2="5" y2="20"/>
	</g>
</g>
<g>
	<path class="st3" d="M10,1c2.2,0,4,1.8,4,4c0,1-0.2,6-4,6S6,6,6,5C6,2.8,7.8,1,10,1 M10,0C7.2,0,5,2.2,5,5s1,7,5,7s5-4.2,5-7
		S12.8,0,10,0L10,0z"/>
</g>
<g>
	<defs>
		<path id="SVGID_5_" d="M19,20H1c-0.6,0-1-0.4-1-1v-0.1C0,15.6,2.6,13,5.9,13h8.3c3.2,0,5.9,2.6,5.9,5.9V19C20,19.6,19.6,20,19,20z
			"/>
	</defs>
	<clipPath id="SVGID_6_">
		<use xlink:href="#SVGID_5_"  style="overflow:visible;"/>
	</clipPath>
	<g class="st8">
		<g>
			<line class="st7" x1="23" y1="-10" x2="-8" y2="21"/>
			<line class="st7" x1="23" y1="-7" x2="-8" y2="24"/>
			<line class="st7" x1="23" y1="-4" x2="-8" y2="27"/>
			<line class="st7" x1="23" y1="-1" x2="-8" y2="30"/>
			<line class="st7" x1="23" y1="2" x2="-8" y2="33"/>
			<line class="st7" x1="23" y1="5" x2="-8" y2="36"/>
		</g>
		<g>
			<line class="st7" x1="23" y1="8" x2="-8" y2="39"/>
			<line class="st7" x1="23" y1="11" x2="-8" y2="42"/>
			<line class="st7" x1="23" y1="14" x2="-8" y2="45"/>
			<line class="st7" x1="23" y1="17" x2="-8" y2="48"/>
			<line class="st7" x1="23" y1="20" x2="-8" y2="51"/>
		</g>
	</g>
</g>
<g>
	<path class="st3" d="M14.1,14c2.7,0,4.9,2.2,4.9,4.9V19H1v-0.1C1,16.2,3.2,14,5.9,14H14.1 M14.1,13H5.9C2.6,13,0,15.6,0,18.9V19
		c0,0.6,0.4,1,1,1h18c0.6,0,1-0.4,1-1v-0.1C20,15.6,17.4,13,14.1,13L14.1,13z"/>
</g>
</svg>
