<?xml version="1.0" encoding="utf-8"?>
<!-- Generator: Adobe Illustrator 22.0.1, SVG Export Plug-In . SVG Version: 6.00 Build 0)  -->
<svg version="1.1" id="Layer_1" xmlns="http://www.w3.org/2000/svg" xmlns:xlink="http://www.w3.org/1999/xlink" x="0px" y="0px"
	 viewBox="0 0 20 20" style="enable-background:new 0 0 20 20;" xml:space="preserve">
<style type="text/css">
	.st0{fill:#D1D1D1;}
	.st1{fill:#E2E2E2;}
	.st2{fill:none;stroke:#485253;stroke-miterlimit:10;}
	.st3{fill:#485253;}
	.st4{fill:none;stroke:#485253;stroke-linejoin:round;stroke-miterlimit:10;}
	.st5{fill:#FFFFFF;}
	.st6{clip-path:url(#SVGID_4_);}
	.st7{fill:none;stroke:#E2E2E2;stroke-miterlimit:10;}
	.st8{clip-path:url(#SVGID_6_);}
	.st9{fill:none;stroke:#485253;stroke-linecap:round;stroke-miterlimit:10;}
	.st10{clip-path:url(#SVGID_7_);}
	.st11{clip-path:url(#SVGID_8_);}
	.st12{fill:none;stroke:#D1D1D1;stroke-linecap:round;stroke-miterlimit:10;}
</style>
<g>
	<g>
		<path class="st3" d="M15.6,3c0.3,0,0.5,0.1,0.7,0.3l2,2c0.4,0.4,0.4,1,0,1.4l-2,2C16.1,8.9,15.9,9,15.6,9H2.4c-0.6,0-1-0.4-1-1V4
			c0-0.6,0.4-1,1-1H15.6 M15.6,2H2.4c-1.1,0-2,0.9-2,2v4c0,1.1,0.9,2,2,2h13.2c0.5,0,1-0.2,1.4-0.6l2-2c0.8-0.8,0.8-2,0-2.8l-2-2
			C16.6,2.2,16.1,2,15.6,2L15.6,2z"/>
	</g>
	<path class="st1" d="M14.4,7h-10c-0.6,0-1-0.4-1-1v0c0-0.6,0.4-1,1-1h10c0.6,0,1,0.4,1,1v0C15.4,6.6,15,7,14.4,7z"/>
	<path class="st9" d="M9.9,17.5h-1c-0.6,0-1-0.4-1-1v-7h3v7C10.9,17.1,10.5,17.5,9.9,17.5z"/>
</g>
</svg>
