<?xml version="1.0" encoding="utf-8"?>
<!-- Generator: Adobe Illustrator 22.0.1, SVG Export Plug-In . SVG Version: 6.00 Build 0)  -->
<svg version="1.1" id="Layer_1" xmlns="http://www.w3.org/2000/svg" xmlns:xlink="http://www.w3.org/1999/xlink" x="0px" y="0px"
	 viewBox="0 0 20 20" style="enable-background:new 0 0 20 20;" xml:space="preserve">
<style type="text/css">
	.st0{fill:#D1D1D1;}
	.st1{fill:#E2E2E2;}
	.st2{fill:none;stroke:#485253;stroke-miterlimit:10;}
	.st3{fill:#485253;}
	.st4{fill:none;stroke:#485253;stroke-linejoin:round;stroke-miterlimit:10;}
	.st5{fill:#FFFFFF;}
	.st6{clip-path:url(#SVGID_4_);}
	.st7{fill:none;stroke:#E2E2E2;stroke-miterlimit:10;}
	.st8{clip-path:url(#SVGID_6_);}
	.st9{fill:none;stroke:#485253;stroke-linecap:round;stroke-miterlimit:10;}
	.st10{clip-path:url(#SVGID_7_);}
	.st11{clip-path:url(#SVGID_8_);}
	.st12{fill:none;stroke:#D1D1D1;stroke-linecap:round;stroke-miterlimit:10;}
</style>
<g>
	<path class="st3" d="M14.1,14c2.7,0,4.9,2.2,4.9,4.9V19H1v-0.1C1,16.2,3.2,14,5.9,14H14.1 M14.1,13H5.9C2.6,13,0,15.6,0,18.9V19
		c0,0.6,0.4,1,1,1h18c0.6,0,1-0.4,1-1v-0.1C20,15.6,17.4,13,14.1,13L14.1,13z"/>
</g>
<path class="st2" d="M6.5,13.5l2.3,2.3c0.7,0.7,1.7,0.7,2.4,0l2.3-2.3"/>
<g>
	<path class="st1" d="M5.7,10.5c-0.5,0-0.9-0.2-1.2-0.6C4.2,9.5,4.1,9,4.3,8.6l1.5-4.9C6.3,1.8,8.1,0.5,10,0.5s3.7,1.3,4.3,3.1
		l1.5,4.9c0.1,0.5,0.1,0.9-0.2,1.3c-0.3,0.4-0.7,0.6-1.2,0.6H5.7z"/>
	<path class="st3" d="M10,1c1.7,0,3.2,1.1,3.8,2.8l1.5,4.9c0.1,0.3,0,0.6-0.2,0.9c-0.2,0.3-0.5,0.4-0.8,0.4h-1.5H7.2H5.7
		c-0.3,0-0.6-0.1-0.8-0.4C4.7,9.3,4.6,9,4.7,8.7l1.5-4.9C6.8,2.1,8.3,1,10,1 M10,0C7.8,0,5.9,1.5,5.3,3.5L3.8,8.4
		C3.4,9.7,4.3,11,5.7,11h1.5h5.7h1.5c1.3,0,2.3-1.3,1.9-2.6l-1.5-4.9C14.1,1.5,12.2,0,10,0L10,0z"/>
</g>
<g>
	<path class="st5" d="M10,11.5c-2.9,0-3.9-2.5-4.3-4.4c1.8-0.1,3.5-1.2,5-3.2c1,1.5,2.5,2.2,3.7,2.5C14.2,8.2,13.3,11.5,10,11.5z"/>
	<path class="st3" d="M11.2,4.1L11.2,4.1L11.2,4.1 M10.7,4.7c1,1.1,2.2,1.7,3.2,2C13.6,8.6,12.7,11,10,11c-2.3,0-3.3-1.7-3.7-3.5
		C7.9,7.3,9.4,6.3,10.7,4.7 M10.7,3.3c-0.1,0-0.2,0.1-0.3,0.2C9,5.4,7.3,6.6,5.4,6.6c-0.1,0-0.2,0-0.3,0C5.5,9.1,6.7,12,10,12
		c3.6,0,4.7-3.3,5-6c-1.1-0.3-2.8-0.8-3.9-2.5C10.9,3.4,10.8,3.3,10.7,3.3L10.7,3.3z"/>
</g>
</svg>
